<svg xmlns="http://www.w3.org/2000/svg" viewBox="0 0 773.48 416.47"><g id="Camada_2" data-name="Camada 2"><g id="Layer_1" data-name="Layer 1"><path d="M530.49,293.17c-52.94,0-89.95-44.9-99.65-58.06,19.28-41.72,17-84.78,17-84.78V39.51l111,240.32c-3.23,4.55-11.65,13.34-28.33,13.34m-249.81-260c8.19-29.07,45.41-26.57,45.41-26.57s33.54-2.08,41.34,34.29c10.05,46.86-37.92,74.49-37.92,74.49-14.69-22-54.6-48.14-48.83-82.21m446.47,20.9c0-51.77,46.33-50,46.33-50V0H682.64l-98.1,218.13L488.71,0H393.33V4.53c52.69,0,45.87,57.69,45.87,57.69,2.23,59.76.93,153.32-25.89,182.58-125.57,149.57-226-50.86-115.81-103.09l97.64,110.82c11.81-11.81,22-32.26,22-32.26l-82.43-99c58.19-22.71,83.37-55.67,59.35-94.44C361.65-16.54,271.62-.4,257.89,32.42L229.85,0H.45V4.08c50.42,0,46.34,40,46.34,40V258c0,42.24-46.34,37.25-46.34,37.25v6.35H142.16v-6.35c-50.87,0-47.69-36.8-47.69-36.8V143.52c77.24-7.75,84.54,47.91,82.21,64.94h7.26V74H178c-5.46,77.9-65.67,58.57-83.11,61.78V6.36C225.55-3.53,229.52,60.47,290.22,133.07c-88.56,45-84,105.38-84,105.38C219.14,354.33,384.76,311.19,410.71,267c25.43,33,136.36,55.8,159.11,8.89,0,0,109.66-239.06,109.66-239.06v213c0,50-47.25,45.88-47.25,45.88v5.9H773.48v-5.45c-49.05,0-46.33-45.87-46.33-45.87Z" style="fill:#333132"/><path d="M0,414.41c4.41-.5,5.28-.37,5.37-5V384.85c-.09-4.4-1-4.62-5.37-5v-1H16.36v1c-4.35.35-5.28.57-5.37,5v24.58c.09,4.61,1,4.48,5.37,5v1H0Z" style="fill:#333132"/><path d="M43,414.41c5.21-.67,5.17-1.68,5.38-7.12V382.92c-1.68-2.08-2.66-3.11-5.38-3v-1h9.44l21.34,26.45V386.92c-.27-5.23-.3-6.61-5.29-7v-1h13v1c-4.91.63-5.09,1.81-5.26,7.1v29.1H75.3L50.83,385.76v21.53c.27,5.2.27,6.57,5.19,7.12v1H43Z" style="fill:#333132"/><path d="M133.85,379.09c3.56.87,4.59,1.83,6-.89H141l.51,12.42h-1.27c-1.87-10.27-15.12-14-21.54-5.65-11.78,16.06,5.17,40.18,22.49,23.31l1,1c-6.53,8.82-21.87,9.36-28.78,1.34-13-13.95,1.58-38.3,20.41-31.56" style="fill:#333132"/><path d="M180.34,410.05c16.64,15.77,26.14-14.81,16.75-26-16.65-15.26-25.88,14.75-16.75,26M176.21,383c19.26-16.84,41.91,11.59,24.94,28.52C181.87,428,159.69,399.84,176.21,383" style="fill:#333132"/><path d="M253.34,395.24c8.35-3.65,3.9-15.91-5.13-14.28-2.49.17-3.3-.33-3.4,1.91v13.61c4-.15,6.82-.56,8.53-1.24m-18.9,19.17c4.52-.55,4.6-1,4.75-5.62V384.85c-.1-4.06-.73-4.54-4.75-5v-1c5.24.27,18.71-.83,23.27,1.2,10.24,3.68,6.46,17.62-3.94,17.68,3.06,2.72,11.41,17,16.2,16.67v1h-8.9l-13.84-17-2.42.14v10.89c.09,4.33.81,4.47,5,5v1H234.44Z" style="fill:#333132"/><path d="M315.14,381.93c-1.61-.49-8.54-2.78-8.44.81v14.41c10.89,2.79,18.31-9.26,8.44-15.22m-18.66,32.48c4.49-.55,4.56-1.09,4.72-5.62V384.85c-.1-4-.73-4.54-4.72-5v-1h14.58c23.47.5,16.27,24.34-4.36,20.53v10c.11,4.47.89,4.51,5.24,5v1H296.48Z" style="fill:#333132"/><path d="M362.57,410.05c16.63,15.76,26.14-14.81,16.75-26-16.65-15.26-25.89,14.75-16.75,26M358.43,383c19.25-16.84,41.93,11.59,24.95,28.52C364.1,428,341.91,399.84,358.43,383" style="fill:#333132"/><path d="M435.56,395.24c8.36-3.64,3.9-15.92-5.13-14.28-2.49.17-3.29-.34-3.39,1.91v13.61c4-.15,6.82-.56,8.52-1.24m-18.89,19.17c4.51-.55,4.58-1,4.74-5.62V384.85c-.1-4.07-.72-4.54-4.74-5v-1c5.23.27,18.72-.83,23.27,1.2,10.23,3.68,6.45,17.63-3.95,17.68,3.06,2.72,11.42,17,16.21,16.67v1h-8.92l-13.82-17-2.42.14v10.89c.09,4.34.8,4.47,5,5v1H416.67Z" style="fill:#333132"/><path d="M502.44,401.22,496.1,386l-6.37,15.22Zm-23.81,14.21v-1c5.53.82,15.32-31.62,18.37-36.21h1.1c2.73,3.52,13.38,37.19,18.74,36.21v1H502.79v-1c7.59.51,1.5-7.47.58-10.94H488.79c-1.87,5.92-6.11,10.37.79,10.94v1Z" style="fill:#333132"/><path d="M554.66,413c26.51,5.56,26.36-36.77,0-31.69-1.17.63-1.14,31,0,31.69m-11.14,1.46c4.1-.6,4.78-.62,4.87-5V384.85c-.1-4.21-.73-4.56-4.87-5v-1c14.4-.34,37.67-2,37.05,18.4.12,20.09-22.57,18.62-37.05,18.17Z" style="fill:#333132"/><path d="M618.8,410.05c16.63,15.77,26.13-14.82,16.76-26-16.67-15.26-25.91,14.75-16.76,26M614.65,383c19.27-16.83,41.93,11.58,25,28.52-19.29,16.48-41.45-11.63-25-28.52" style="fill:#333132"/><path d="M691.79,395.24c8.36-3.65,3.9-15.91-5.14-14.28-2.47.17-3.3-.34-3.39,1.91v13.61c4-.15,6.83-.56,8.53-1.24m-18.91,19.17c4.53-.55,4.59-1,4.76-5.62V384.85c-.1-4.07-.73-4.54-4.76-5v-1c5.25.27,18.72-.83,23.29,1.2,10.25,3.68,6.45,17.62-3.95,17.68,3,2.71,11.42,17,16.19,16.67v1h-8.9l-13.83-17-2.42.14v10.89c.08,4.33.81,4.47,5,5v1H672.88Z" style="fill:#333132"/><path d="M758.66,401.22,752.33,386,746,401.22Zm-23.8,14.21v-1c5.52.81,15.32-31.62,18.37-36.21h1.1c2.73,3.52,13.38,37.19,18.74,36.21v1H759v-1c7.58.52,1.49-7.47.58-10.94H745c-1.87,5.92-6.11,10.37.79,10.94v1Z" style="fill:#333132"/><rect width="773.48" height="416.35" style="fill:none"/></g></g></svg>