<svg xmlns="http://www.w3.org/2000/svg" width="68.853" height="68.786" viewBox="0 0 68.853 68.786">
  <g id="ic-actions-settings" transform="translate(1.003 1.003)">
    <path id="Caminho_37" data-name="Caminho 37" d="M30.151,6.7l.3-.731a6.65,6.65,0,0,1,12.4.532l.233.765a6.65,6.65,0,0,0,8.91,4.123l.7-.3A6.65,6.65,0,0,1,61.1,20.23l-.366.7A6.65,6.65,0,0,0,64.064,30.1l.731.3a6.65,6.65,0,0,1-.532,12.4l-.765.233a6.65,6.65,0,0,0-4.189,8.91l.3.7a6.65,6.65,0,0,1-9.143,8.412l-.7-.366a6.65,6.65,0,0,0-9.176,3.325l-.3.731a6.65,6.65,0,0,1-12.4-.532l-.233-.765a6.65,6.65,0,0,0-8.91-4.189l-.7.3a6.65,6.65,0,0,1-8.412-9.143l.366-.7a6.65,6.65,0,0,0-3.325-9.176l-.731-.3a6.65,6.65,0,0,1,.532-12.4l.765-.233a6.65,6.65,0,0,0,4.189-8.91l-.3-.7a6.65,6.65,0,0,1,9.143-8.345l.7.366A6.65,6.65,0,0,0,30.151,6.7Z" transform="translate(-1.947 -1.967)" fill="none" stroke="#f7c90b" stroke-linecap="round" stroke-linejoin="bevel" stroke-width="2"/>
    <circle id="Elipse_16" data-name="Elipse 16" cx="13" cy="13" r="13" transform="translate(20.424 20.357)" fill="none" stroke="#f7c90b" stroke-linecap="round" stroke-linejoin="bevel" stroke-width="2"/>
  </g>
</svg>
