<svg xmlns="http://www.w3.org/2000/svg" width="68.667" height="61.667" viewBox="0 0 68.667 61.667">
  <g id="ic-folder-heart" transform="translate(1 1)">
    <path id="Caminho_186" data-name="Caminho 186" d="M31.355,15.072a9.617,9.617,0,1,1,13.6,13.6l-2.467,2.467h0l-13.6,13.6h0l-13.567-13.6h0l-2.5-2.467a9.617,9.617,0,0,1,13.6-13.6l2.5,2.467Z" transform="translate(16.678 14.928)" fill="none" stroke="#f7c90b" stroke-linecap="round" stroke-linejoin="round" stroke-width="2"/>
    <path id="Caminho_187" data-name="Caminho 187" d="M22,50.633H8.667A6.667,6.667,0,0,1,2,43.967V7.3H62a6.667,6.667,0,0,1,6.667,6.667" transform="translate(-2 3.367)" fill="none" stroke="#f7c90b" stroke-linecap="round" stroke-linejoin="round" stroke-width="2"/>
    <path id="Caminho_188" data-name="Caminho 188" d="M2,27.433v-20A3.333,3.333,0,0,1,5.033,4.1H34.567a2.967,2.967,0,0,1,2.133.967l5.3,9.7" transform="translate(-2 -4.1)" fill="none" stroke="#f7c90b" stroke-linecap="round" stroke-linejoin="round" stroke-width="2"/>
  </g>
</svg>
