<svg xmlns="http://www.w3.org/2000/svg" width="109.827" height="34.876" viewBox="0 0 109.827 34.876">
  <g id="logo_SKR" data-name="logo SKR" transform="translate(0.021 -0.1)">
    <path id="Caminho_189" data-name="Caminho 189" d="M43.317,18.076S55.987,31.4,56.962,32.911c1.3,1.949-1.3,1.949-1.3,1.949H51.547a3.3,3.3,0,0,1-2.816-1.191c-.758-.758-10.721-11.262-10.721-11.262V32.37a2.077,2.077,0,0,1-2.057,2.382H31.73a2.145,2.145,0,0,1-2.057-2.382V3.132A2.145,2.145,0,0,1,31.73.75h4.223a2.077,2.077,0,0,1,2.057,2.382v9.746S47.432,2.374,48.19,1.616A3.574,3.574,0,0,1,51.006.533h4.656s2.6,0,1.408,1.949C55.987,4.107,43.317,17.426,43.317,17.426a.474.474,0,0,0-.108.325,1.091,1.091,0,0,0,.108.325M11.372,7.572H21.984c1.949,0,2.707-.541,2.707-2.166,0-2.057.433-4.765-2.491-4.765H9.423a7.291,7.291,0,0,0-2.707.433A9.4,9.4,0,0,0,.218,12.12a.819.819,0,0,0,.108.433A8.732,8.732,0,0,0,1.734,15.8c.108.108.108.217.217.217.108.108.108.217.217.217a1.9,1.9,0,0,0,.433.541,8.291,8.291,0,0,0,2.057,1.733h.108a8.95,8.95,0,0,0,1.408.758A41.46,41.46,0,0,0,11.372,21c3.249.975,5.09,2.166,5.2,3.79v.541a3.05,3.05,0,0,1-.433,1.191,2.723,2.723,0,0,1-2.491,1.083H2.709C.76,27.605,0,28.147,0,29.771c0,2.057-.433,4.765,2.491,4.765H15.27a7.761,7.761,0,0,0,2.707-.433,9.4,9.4,0,0,0,6.5-11.045.819.819,0,0,0-.108-.433,9.442,9.442,0,0,0-4.223-6.064h-.108a8.95,8.95,0,0,0-1.408-.758,41.459,41.459,0,0,0-5.2-1.733A13.6,13.6,0,0,1,10.4,12.878c-1.3-.758-2.057-1.516-2.166-2.6V9.738c.217-.325.325-.758.541-1.083a2.806,2.806,0,0,1,2.6-1.083m67.9.866a17.967,17.967,0,0,1,2.6-.217c1.408-.108,1.624-.975,1.624-1.408V2.482A2.312,2.312,0,0,0,81.218.1h-.325A11.767,11.767,0,0,0,70.606,6.272c-.217,0-.108-.758,0-2.057V3.132A2.5,2.5,0,0,0,68.224.641h-3.9a2.428,2.428,0,0,0-2.382,2.491V32.478a2.5,2.5,0,0,0,2.382,2.491h3.79A2.428,2.428,0,0,0,70.5,32.478V21.866c0-1.3,0-2.491.108-3.574v-.108a10.028,10.028,0,0,1,8.663-9.746" transform="translate(0)" fill="#fff"/>
    <path id="Caminho_190" data-name="Caminho 190" d="M103.123,17.618a4.406,4.406,0,0,0-.866-2.6,5.629,5.629,0,0,1-.325-.541S90.129,2.241,89.479,1.591A3.7,3.7,0,0,0,86.555.4l-3.79.108S79.625.4,80.924,2.349C81.9,3.865,95,17.4,95,17.4a.474.474,0,0,1,.108.325,1.091,1.091,0,0,1-.108.325S81.9,31.587,80.924,33.1c-1.3,2.057,1.841,1.841,1.841,1.841l3.79-.108a3.379,3.379,0,0,0,2.924-1.191c.758-.758,12.561-12.995,12.561-12.995a1.526,1.526,0,0,0,.325-.541,4.522,4.522,0,0,0,.758-2.491" transform="translate(6.683 0.025)" fill="#fff"/>
  </g>
</svg>
